<mxfile host="Electron" modified="2024-01-10T15:46:14.078Z" agent="Mozilla/5.0 (Windows NT 10.0; Win64; x64) AppleWebKit/537.36 (KHTML, like Gecko) draw.io/22.1.16 Chrome/120.0.6099.109 Electron/28.1.0 Safari/537.36" etag="7CMUS6uyYCxBwUBK2Y9I" version="22.1.16" type="device">
  <diagram name="Page-1" id="dJi5VRqOonyrnNemtCTE">
    <mxGraphModel dx="691" dy="-1" grid="1" gridSize="10" guides="1" tooltips="1" connect="1" arrows="1" fold="1" page="0" pageScale="1" pageWidth="827" pageHeight="1169" math="0" shadow="0">
      <root>
        <mxCell id="0" />
        <mxCell id="1" parent="0" />
        <mxCell id="qTiD9YKsBHqTvjV5nqIr-10" style="edgeStyle=orthogonalEdgeStyle;rounded=0;orthogonalLoop=1;jettySize=auto;html=1;" edge="1" parent="1" source="qTiD9YKsBHqTvjV5nqIr-5" target="qTiD9YKsBHqTvjV5nqIr-9">
          <mxGeometry relative="1" as="geometry" />
        </mxCell>
        <mxCell id="qTiD9YKsBHqTvjV5nqIr-12" style="edgeStyle=orthogonalEdgeStyle;rounded=0;orthogonalLoop=1;jettySize=auto;html=1;" edge="1" parent="1" source="qTiD9YKsBHqTvjV5nqIr-5" target="qTiD9YKsBHqTvjV5nqIr-11">
          <mxGeometry relative="1" as="geometry" />
        </mxCell>
        <mxCell id="qTiD9YKsBHqTvjV5nqIr-5" value="Nodes { abstract }" style="swimlane;fontStyle=0;childLayout=stackLayout;horizontal=1;startSize=26;fillColor=none;horizontalStack=0;resizeParent=1;resizeParentMax=0;resizeLast=0;collapsible=1;marginBottom=0;whiteSpace=wrap;html=1;" vertex="1" parent="1">
          <mxGeometry x="370" y="530" width="140" height="30" as="geometry" />
        </mxCell>
        <mxCell id="qTiD9YKsBHqTvjV5nqIr-13" style="edgeStyle=orthogonalEdgeStyle;rounded=0;orthogonalLoop=1;jettySize=auto;html=1;exitX=0.5;exitY=1;exitDx=0;exitDy=0;" edge="1" parent="1" source="qTiD9YKsBHqTvjV5nqIr-9">
          <mxGeometry relative="1" as="geometry">
            <mxPoint x="524.96" y="689.96" as="targetPoint" />
          </mxGeometry>
        </mxCell>
        <mxCell id="qTiD9YKsBHqTvjV5nqIr-9" value="Dialogue node &lt;br&gt;{ abstract }" style="swimlane;fontStyle=0;childLayout=stackLayout;horizontal=1;startSize=36;fillColor=none;horizontalStack=0;resizeParent=1;resizeParentMax=0;resizeLast=0;collapsible=1;marginBottom=0;whiteSpace=wrap;html=1;" vertex="1" parent="1">
          <mxGeometry x="450" y="640" width="150" height="40" as="geometry" />
        </mxCell>
        <mxCell id="qTiD9YKsBHqTvjV5nqIr-11" value="Root node" style="swimlane;fontStyle=0;childLayout=stackLayout;horizontal=1;startSize=26;fillColor=none;horizontalStack=0;resizeParent=1;resizeParentMax=0;resizeLast=0;collapsible=1;marginBottom=0;whiteSpace=wrap;html=1;" vertex="1" parent="1">
          <mxGeometry x="290" y="640" width="140" height="30" as="geometry" />
        </mxCell>
      </root>
    </mxGraphModel>
  </diagram>
</mxfile>
